<svg id="svg" version="1.1" xmlns="http://www.w3.org/2000/svg" xmlns:xlink="http://www.w3.org/1999/xlink" width="400" height="400" viewBox="0, 0, 400,400"><g id="svgg"><path id="path0" d="M187.500 46.875 L 187.500 50.000 181.250 50.000 L 175.000 50.000 175.000 53.125 L 175.000 56.250 171.875 56.250 L 168.750 56.250 168.750 59.375 L 168.750 62.500 162.500 62.500 L 156.250 62.500 156.250 65.625 L 156.250 68.750 150.000 68.750 L 143.750 68.750 143.750 71.875 L 143.750 75.000 137.500 75.000 L 131.250 75.000 131.250 78.125 L 131.250 81.250 128.125 81.250 L 125.000 81.250 125.000 84.375 L 125.000 87.500 121.875 87.500 L 118.750 87.500 118.750 90.625 L 118.750 93.750 115.625 93.750 L 112.500 93.750 112.500 96.875 L 112.500 100.000 109.375 100.000 L 106.250 100.000 106.250 103.125 L 106.250 106.250 103.125 106.250 L 100.000 106.250 100.000 109.375 L 100.000 112.500 96.875 112.500 L 93.750 112.500 93.750 115.625 L 93.750 118.750 90.625 118.750 L 87.500 118.750 87.500 128.125 L 87.500 137.500 84.375 137.500 L 81.250 137.500 81.250 162.500 L 81.250 187.500 84.375 187.500 L 87.500 187.500 87.500 196.875 L 87.500 206.250 90.625 206.250 L 93.750 206.250 93.750 212.500 L 93.750 218.750 96.875 218.750 L 100.000 218.750 100.000 221.875 L 100.000 225.000 103.125 225.000 L 106.250 225.000 106.250 234.375 L 106.250 243.750 109.375 243.750 L 112.500 243.750 112.500 250.000 L 112.500 256.250 115.625 256.250 L 118.750 256.250 118.750 259.375 L 118.750 262.500 121.875 262.500 L 125.000 262.500 125.000 265.625 L 125.000 268.750 134.375 268.750 L 143.750 268.750 143.750 271.875 L 143.750 275.000 146.875 275.000 L 150.000 275.000 150.000 278.125 L 150.000 281.250 153.125 281.250 L 156.250 281.250 156.250 284.375 L 156.250 287.500 159.375 287.500 L 162.500 287.500 162.500 293.750 L 162.500 300.000 165.625 300.000 L 168.750 300.000 168.750 309.375 L 168.750 318.750 171.875 318.750 L 175.000 318.750 175.000 309.375 L 175.000 300.000 171.875 300.000 L 168.750 300.000 168.750 290.625 L 168.750 281.250 175.000 281.250 L 181.250 281.250 181.250 284.375 L 181.250 287.500 184.375 287.500 L 187.500 287.500 187.500 290.625 L 187.500 293.750 190.625 293.750 L 193.750 293.750 193.750 300.000 L 193.750 306.250 196.875 306.250 L 200.000 306.250 200.000 318.750 L 200.000 331.250 203.125 331.250 L 206.250 331.250 206.250 337.500 L 206.250 343.750 209.375 343.750 L 212.500 343.750 212.500 346.875 L 212.500 350.000 215.625 350.000 L 218.750 350.000 218.750 356.250 L 218.750 362.500 225.000 362.500 L 231.250 362.500 231.250 359.375 L 231.250 356.250 234.375 356.250 L 237.500 356.250 237.500 343.750 L 237.500 331.250 240.625 331.250 L 243.750 331.250 243.750 328.125 L 243.750 325.000 246.875 325.000 L 250.000 325.000 250.000 321.875 L 250.000 318.750 253.125 318.750 L 256.250 318.750 256.250 315.625 L 256.250 312.500 259.375 312.500 L 262.500 312.500 262.500 309.375 L 262.500 306.250 265.625 306.250 L 268.750 306.250 268.750 300.000 L 268.750 293.750 271.875 293.750 L 275.000 293.750 275.000 290.625 L 275.000 287.500 278.125 287.500 L 281.250 287.500 281.250 281.250 L 281.250 275.000 284.375 275.000 L 287.500 275.000 287.500 265.625 L 287.500 256.250 290.625 256.250 L 293.750 256.250 293.750 200.000 L 293.750 143.750 290.625 143.750 L 287.500 143.750 287.500 137.500 L 287.500 131.250 284.375 131.250 L 281.250 131.250 281.250 125.000 L 281.250 118.750 278.125 118.750 L 275.000 118.750 275.000 112.500 L 275.000 106.250 271.875 106.250 L 268.750 106.250 268.750 103.125 L 268.750 100.000 262.500 100.000 L 256.250 100.000 256.250 96.875 L 256.250 93.750 253.125 93.750 L 250.000 93.750 250.000 87.500 L 250.000 81.250 246.875 81.250 L 243.750 81.250 243.750 78.125 L 243.750 75.000 240.625 75.000 L 237.500 75.000 237.500 71.875 L 237.500 68.750 234.375 68.750 L 231.250 68.750 231.250 62.500 L 231.250 56.250 225.000 56.250 L 218.750 56.250 218.750 53.125 L 218.750 50.000 212.500 50.000 L 206.250 50.000 206.250 46.875 L 206.250 43.750 196.875 43.750 L 187.500 43.750 187.500 46.875 M206.250 59.375 L 206.250 62.500 209.375 62.500 L 212.500 62.500 212.500 65.625 L 212.500 68.750 218.750 68.750 L 225.000 68.750 225.000 71.875 L 225.000 75.000 228.125 75.000 L 231.250 75.000 231.250 78.125 L 231.250 81.250 234.375 81.250 L 237.500 81.250 237.500 84.375 L 237.500 87.500 240.625 87.500 L 243.750 87.500 243.750 93.750 L 243.750 100.000 246.875 100.000 L 250.000 100.000 250.000 103.125 L 250.000 106.250 253.125 106.250 L 256.250 106.250 256.250 109.375 L 256.250 112.500 259.375 112.500 L 262.500 112.500 262.500 118.750 L 262.500 125.000 265.625 125.000 L 268.750 125.000 268.750 128.125 L 268.750 131.250 271.875 131.250 L 275.000 131.250 275.000 137.500 L 275.000 143.750 278.125 143.750 L 281.250 143.750 281.250 156.250 L 281.250 168.750 278.125 168.750 L 275.000 168.750 275.000 190.625 L 275.000 212.500 271.875 212.500 L 268.750 212.500 268.750 221.875 L 268.750 231.250 271.875 231.250 L 275.000 231.250 275.000 225.000 L 275.000 218.750 278.125 218.750 L 281.250 218.750 281.250 237.500 L 281.250 256.250 278.125 256.250 L 275.000 256.250 275.000 259.375 L 275.000 262.500 271.875 262.500 L 268.750 262.500 268.750 268.750 L 268.750 275.000 271.875 275.000 L 275.000 275.000 275.000 271.875 L 275.000 268.750 278.125 268.750 L 281.250 268.750 281.250 271.875 L 281.250 275.000 278.125 275.000 L 275.000 275.000 275.000 278.125 L 275.000 281.250 271.875 281.250 L 268.750 281.250 268.750 278.125 L 268.750 275.000 265.625 275.000 L 262.500 275.000 262.500 281.250 L 262.500 287.500 259.375 287.500 L 256.250 287.500 256.250 290.625 L 256.250 293.750 259.375 293.750 L 262.500 293.750 262.500 296.875 L 262.500 300.000 259.375 300.000 L 256.250 300.000 256.250 306.250 L 256.250 312.500 250.000 312.500 L 243.750 312.500 243.750 315.625 L 243.750 318.750 240.625 318.750 L 237.500 318.750 237.500 315.625 L 237.500 312.500 240.625 312.500 L 243.750 312.500 243.750 306.250 L 243.750 300.000 240.625 300.000 L 237.500 300.000 237.500 303.125 L 237.500 306.250 234.375 306.250 L 231.250 306.250 231.250 303.125 L 231.250 300.000 228.125 300.000 L 225.000 300.000 225.000 293.750 L 225.000 287.500 218.750 287.500 L 212.500 287.500 212.500 284.375 L 212.500 281.250 209.375 281.250 L 206.250 281.250 206.250 278.125 L 206.250 275.000 196.875 275.000 L 187.500 275.000 187.500 271.875 L 187.500 268.750 178.125 268.750 L 168.750 268.750 168.750 265.625 L 168.750 262.500 159.375 262.500 L 150.000 262.500 150.000 259.375 L 150.000 256.250 146.875 256.250 L 143.750 256.250 143.750 253.125 L 143.750 250.000 140.625 250.000 L 137.500 250.000 137.500 246.875 L 137.500 243.750 134.375 243.750 L 131.250 243.750 131.250 240.625 L 131.250 237.500 128.125 237.500 L 125.000 237.500 125.000 231.250 L 125.000 225.000 121.875 225.000 L 118.750 225.000 118.750 215.625 L 118.750 206.250 115.625 206.250 L 112.500 206.250 112.500 203.125 L 112.500 200.000 106.250 200.000 L 100.000 200.000 100.000 181.250 L 100.000 162.500 96.875 162.500 L 93.750 162.500 93.750 153.125 L 93.750 143.750 96.875 143.750 L 100.000 143.750 100.000 131.250 L 100.000 118.750 103.125 118.750 L 106.250 118.750 106.250 115.625 L 106.250 112.500 109.375 112.500 L 112.500 112.500 112.500 109.375 L 112.500 106.250 115.625 106.250 L 118.750 106.250 118.750 103.125 L 118.750 100.000 121.875 100.000 L 125.000 100.000 125.000 96.875 L 125.000 93.750 131.250 93.750 L 137.500 93.750 137.500 90.625 L 137.500 87.500 143.750 87.500 L 150.000 87.500 150.000 84.375 L 150.000 81.250 153.125 81.250 L 156.250 81.250 156.250 78.125 L 156.250 75.000 162.500 75.000 L 168.750 75.000 168.750 71.875 L 168.750 68.750 171.875 68.750 L 175.000 68.750 175.000 65.625 L 175.000 62.500 184.375 62.500 L 193.750 62.500 193.750 59.375 L 193.750 56.250 200.000 56.250 L 206.250 56.250 206.250 59.375 M93.750 175.000 L 93.750 181.250 90.625 181.250 L 87.500 181.250 87.500 175.000 L 87.500 168.750 90.625 168.750 L 93.750 168.750 93.750 175.000 M106.250 209.375 L 106.250 212.500 109.375 212.500 L 112.500 212.500 112.500 215.625 L 112.500 218.750 109.375 218.750 L 106.250 218.750 106.250 215.625 L 106.250 212.500 103.125 212.500 L 100.000 212.500 100.000 209.375 L 100.000 206.250 103.125 206.250 L 106.250 206.250 106.250 209.375 M118.750 234.375 L 118.750 237.500 115.625 237.500 L 112.500 237.500 112.500 234.375 L 112.500 231.250 115.625 231.250 L 118.750 231.250 118.750 234.375 M125.000 246.875 L 125.000 250.000 128.125 250.000 L 131.250 250.000 131.250 253.125 L 131.250 256.250 134.375 256.250 L 137.500 256.250 137.500 259.375 L 137.500 262.500 134.375 262.500 L 131.250 262.500 131.250 259.375 L 131.250 256.250 128.125 256.250 L 125.000 256.250 125.000 253.125 L 125.000 250.000 121.875 250.000 L 118.750 250.000 118.750 246.875 L 118.750 243.750 121.875 243.750 L 125.000 243.750 125.000 246.875 M168.750 278.125 L 168.750 281.250 165.625 281.250 L 162.500 281.250 162.500 278.125 L 162.500 275.000 165.625 275.000 L 168.750 275.000 168.750 278.125 M200.000 287.500 L 200.000 293.750 203.125 293.750 L 206.250 293.750 206.250 296.875 L 206.250 300.000 209.375 300.000 L 212.500 300.000 212.500 309.375 L 212.500 318.750 215.625 318.750 L 218.750 318.750 218.750 321.875 L 218.750 325.000 221.875 325.000 L 225.000 325.000 225.000 318.750 L 225.000 312.500 221.875 312.500 L 218.750 312.500 218.750 309.375 L 218.750 306.250 221.875 306.250 L 225.000 306.250 225.000 309.375 L 225.000 312.500 228.125 312.500 L 231.250 312.500 231.250 318.750 L 231.250 325.000 228.125 325.000 L 225.000 325.000 225.000 328.125 L 225.000 331.250 228.125 331.250 L 231.250 331.250 231.250 340.625 L 231.250 350.000 228.125 350.000 L 225.000 350.000 225.000 346.875 L 225.000 343.750 221.875 343.750 L 218.750 343.750 218.750 340.625 L 218.750 337.500 215.625 337.500 L 212.500 337.500 212.500 331.250 L 212.500 325.000 209.375 325.000 L 206.250 325.000 206.250 312.500 L 206.250 300.000 203.125 300.000 L 200.000 300.000 200.000 296.875 L 200.000 293.750 196.875 293.750 L 193.750 293.750 193.750 287.500 L 193.750 281.250 196.875 281.250 L 200.000 281.250 200.000 287.500 M243.750 296.875 L 243.750 300.000 250.000 300.000 L 256.250 300.000 256.250 296.875 L 256.250 293.750 250.000 293.750 L 243.750 293.750 243.750 296.875 " stroke="none" fill="#c4fcf4" fill-rule="evenodd"></path><path id="path1" d="M193.750 59.375 L 193.750 62.500 184.375 62.500 L 175.000 62.500 175.000 65.625 L 175.000 68.750 171.875 68.750 L 168.750 68.750 168.750 71.875 L 168.750 75.000 162.500 75.000 L 156.250 75.000 156.250 78.125 L 156.250 81.250 153.125 81.250 L 150.000 81.250 150.000 84.375 L 150.000 87.500 143.750 87.500 L 137.500 87.500 137.500 90.625 L 137.500 93.750 131.250 93.750 L 125.000 93.750 125.000 96.875 L 125.000 100.000 121.875 100.000 L 118.750 100.000 118.750 103.125 L 118.750 106.250 115.625 106.250 L 112.500 106.250 112.500 109.375 L 112.500 112.500 109.375 112.500 L 106.250 112.500 106.250 115.625 L 106.250 118.750 103.125 118.750 L 100.000 118.750 100.000 131.250 L 100.000 143.750 96.875 143.750 L 93.750 143.750 93.750 153.125 L 93.750 162.500 96.875 162.500 L 100.000 162.500 100.000 181.250 L 100.000 200.000 106.250 200.000 L 112.500 200.000 112.500 196.875 L 112.500 193.750 109.375 193.750 L 106.250 193.750 106.250 162.500 L 106.250 131.250 109.375 131.250 L 112.500 131.250 112.500 137.500 L 112.500 143.750 115.625 143.750 L 118.750 143.750 118.750 128.125 L 118.750 112.500 121.875 112.500 L 125.000 112.500 125.000 109.375 L 125.000 106.250 128.125 106.250 L 131.250 106.250 131.250 109.375 L 131.250 112.500 134.375 112.500 L 137.500 112.500 137.500 106.250 L 137.500 100.000 140.625 100.000 L 143.750 100.000 143.750 106.250 L 143.750 112.500 146.875 112.500 L 150.000 112.500 150.000 106.250 L 150.000 100.000 153.125 100.000 L 156.250 100.000 156.250 96.875 L 156.250 93.750 159.375 93.750 L 162.500 93.750 162.500 90.625 L 162.500 87.500 165.625 87.500 L 168.750 87.500 168.750 81.250 L 168.750 75.000 171.875 75.000 L 175.000 75.000 175.000 71.875 L 175.000 68.750 190.625 68.750 L 206.250 68.750 206.250 78.125 L 206.250 87.500 209.375 87.500 L 212.500 87.500 212.500 81.250 L 212.500 75.000 215.625 75.000 L 218.750 75.000 218.750 87.500 L 218.750 100.000 221.875 100.000 L 225.000 100.000 225.000 93.750 L 225.000 87.500 228.125 87.500 L 231.250 87.500 231.250 90.625 L 231.250 93.750 234.375 93.750 L 237.500 93.750 237.500 96.875 L 237.500 100.000 240.625 100.000 L 243.750 100.000 243.750 112.500 L 243.750 125.000 246.875 125.000 L 250.000 125.000 250.000 121.875 L 250.000 118.750 253.125 118.750 L 256.250 118.750 256.250 134.375 L 256.250 150.000 259.375 150.000 L 262.500 150.000 262.500 143.750 L 262.500 137.500 265.625 137.500 L 268.750 137.500 268.750 143.750 L 268.750 150.000 271.875 150.000 L 275.000 150.000 275.000 156.250 L 275.000 162.500 278.125 162.500 L 281.250 162.500 281.250 153.125 L 281.250 143.750 278.125 143.750 L 275.000 143.750 275.000 137.500 L 275.000 131.250 271.875 131.250 L 268.750 131.250 268.750 128.125 L 268.750 125.000 265.625 125.000 L 262.500 125.000 262.500 118.750 L 262.500 112.500 259.375 112.500 L 256.250 112.500 256.250 109.375 L 256.250 106.250 253.125 106.250 L 250.000 106.250 250.000 103.125 L 250.000 100.000 246.875 100.000 L 243.750 100.000 243.750 93.750 L 243.750 87.500 240.625 87.500 L 237.500 87.500 237.500 84.375 L 237.500 81.250 234.375 81.250 L 231.250 81.250 231.250 78.125 L 231.250 75.000 228.125 75.000 L 225.000 75.000 225.000 71.875 L 225.000 68.750 218.750 68.750 L 212.500 68.750 212.500 65.625 L 212.500 62.500 209.375 62.500 L 206.250 62.500 206.250 59.375 L 206.250 56.250 200.000 56.250 L 193.750 56.250 193.750 59.375 M81.250 196.875 L 81.250 206.250 84.375 206.250 L 87.500 206.250 87.500 237.500 L 87.500 268.750 90.625 268.750 L 93.750 268.750 93.750 262.500 L 93.750 256.250 96.875 256.250 L 100.000 256.250 100.000 253.125 L 100.000 250.000 103.125 250.000 L 106.250 250.000 106.250 253.125 L 106.250 256.250 109.375 256.250 L 112.500 256.250 112.500 259.375 L 112.500 262.500 115.625 262.500 L 118.750 262.500 118.750 268.750 L 118.750 275.000 121.875 275.000 L 125.000 275.000 125.000 281.250 L 125.000 287.500 128.125 287.500 L 131.250 287.500 131.250 281.250 L 131.250 275.000 134.375 275.000 L 137.500 275.000 137.500 281.250 L 137.500 287.500 140.625 287.500 L 143.750 287.500 143.750 284.375 L 143.750 281.250 146.875 281.250 L 150.000 281.250 150.000 290.625 L 150.000 300.000 153.125 300.000 L 156.250 300.000 156.250 303.125 L 156.250 306.250 159.375 306.250 L 162.500 306.250 162.500 309.375 L 162.500 312.500 165.625 312.500 L 168.750 312.500 168.750 306.250 L 168.750 300.000 171.875 300.000 L 175.000 300.000 175.000 303.125 L 175.000 306.250 178.125 306.250 L 181.250 306.250 181.250 300.000 L 181.250 293.750 184.375 293.750 L 187.500 293.750 187.500 300.000 L 187.500 306.250 190.625 306.250 L 193.750 306.250 193.750 309.375 L 193.750 312.500 196.875 312.500 L 200.000 312.500 200.000 309.375 L 200.000 306.250 196.875 306.250 L 193.750 306.250 193.750 300.000 L 193.750 293.750 196.875 293.750 L 200.000 293.750 200.000 287.500 L 200.000 281.250 196.875 281.250 L 193.750 281.250 193.750 287.500 L 193.750 293.750 190.625 293.750 L 187.500 293.750 187.500 290.625 L 187.500 287.500 184.375 287.500 L 181.250 287.500 181.250 284.375 L 181.250 281.250 175.000 281.250 L 168.750 281.250 168.750 290.625 L 168.750 300.000 165.625 300.000 L 162.500 300.000 162.500 293.750 L 162.500 287.500 159.375 287.500 L 156.250 287.500 156.250 284.375 L 156.250 281.250 153.125 281.250 L 150.000 281.250 150.000 278.125 L 150.000 275.000 146.875 275.000 L 143.750 275.000 143.750 271.875 L 143.750 268.750 134.375 268.750 L 125.000 268.750 125.000 265.625 L 125.000 262.500 121.875 262.500 L 118.750 262.500 118.750 259.375 L 118.750 256.250 115.625 256.250 L 112.500 256.250 112.500 250.000 L 112.500 243.750 109.375 243.750 L 106.250 243.750 106.250 234.375 L 106.250 225.000 103.125 225.000 L 100.000 225.000 100.000 221.875 L 100.000 218.750 96.875 218.750 L 93.750 218.750 93.750 212.500 L 93.750 206.250 90.625 206.250 L 87.500 206.250 87.500 196.875 L 87.500 187.500 84.375 187.500 L 81.250 187.500 81.250 196.875 M275.000 225.000 L 275.000 231.250 271.875 231.250 L 268.750 231.250 268.750 234.375 L 268.750 237.500 271.875 237.500 L 275.000 237.500 275.000 234.375 L 275.000 231.250 278.125 231.250 L 281.250 231.250 281.250 225.000 L 281.250 218.750 278.125 218.750 L 275.000 218.750 275.000 225.000 M100.000 231.250 L 100.000 237.500 96.875 237.500 L 93.750 237.500 93.750 231.250 L 93.750 225.000 96.875 225.000 L 100.000 225.000 100.000 231.250 M287.500 265.625 L 287.500 275.000 284.375 275.000 L 281.250 275.000 281.250 281.250 L 281.250 287.500 278.125 287.500 L 275.000 287.500 275.000 290.625 L 275.000 293.750 271.875 293.750 L 268.750 293.750 268.750 300.000 L 268.750 306.250 265.625 306.250 L 262.500 306.250 262.500 309.375 L 262.500 312.500 259.375 312.500 L 256.250 312.500 256.250 315.625 L 256.250 318.750 253.125 318.750 L 250.000 318.750 250.000 321.875 L 250.000 325.000 246.875 325.000 L 243.750 325.000 243.750 328.125 L 243.750 331.250 240.625 331.250 L 237.500 331.250 237.500 337.500 L 237.500 343.750 240.625 343.750 L 243.750 343.750 243.750 337.500 L 243.750 331.250 246.875 331.250 L 250.000 331.250 250.000 328.125 L 250.000 325.000 253.125 325.000 L 256.250 325.000 256.250 328.125 L 256.250 331.250 259.375 331.250 L 262.500 331.250 262.500 328.125 L 262.500 325.000 268.750 325.000 L 275.000 325.000 275.000 321.875 L 275.000 318.750 271.875 318.750 L 268.750 318.750 268.750 312.500 L 268.750 306.250 271.875 306.250 L 275.000 306.250 275.000 309.375 L 275.000 312.500 278.125 312.500 L 281.250 312.500 281.250 306.250 L 281.250 300.000 278.125 300.000 L 275.000 300.000 275.000 296.875 L 275.000 293.750 281.250 293.750 L 287.500 293.750 287.500 284.375 L 287.500 275.000 290.625 275.000 L 293.750 275.000 293.750 265.625 L 293.750 256.250 290.625 256.250 L 287.500 256.250 287.500 265.625 M206.250 309.375 L 206.250 318.750 209.375 318.750 L 212.500 318.750 212.500 325.000 L 212.500 331.250 215.625 331.250 L 218.750 331.250 218.750 334.375 L 218.750 337.500 221.875 337.500 L 225.000 337.500 225.000 340.625 L 225.000 343.750 228.125 343.750 L 231.250 343.750 231.250 337.500 L 231.250 331.250 228.125 331.250 L 225.000 331.250 225.000 328.125 L 225.000 325.000 221.875 325.000 L 218.750 325.000 218.750 321.875 L 218.750 318.750 215.625 318.750 L 212.500 318.750 212.500 309.375 L 212.500 300.000 209.375 300.000 L 206.250 300.000 206.250 309.375 M168.750 321.875 L 168.750 325.000 171.875 325.000 L 175.000 325.000 175.000 321.875 L 175.000 318.750 171.875 318.750 L 168.750 318.750 168.750 321.875 M200.000 334.375 L 200.000 337.500 203.125 337.500 L 206.250 337.500 206.250 334.375 L 206.250 331.250 203.125 331.250 L 200.000 331.250 200.000 334.375 M206.250 346.875 L 206.250 350.000 209.375 350.000 L 212.500 350.000 212.500 356.250 L 212.500 362.500 215.625 362.500 L 218.750 362.500 218.750 365.625 L 218.750 368.750 221.875 368.750 L 225.000 368.750 225.000 365.625 L 225.000 362.500 221.875 362.500 L 218.750 362.500 218.750 356.250 L 218.750 350.000 215.625 350.000 L 212.500 350.000 212.500 346.875 L 212.500 343.750 209.375 343.750 L 206.250 343.750 206.250 346.875 " stroke="none" fill="#4454a4" fill-rule="evenodd"></path><path id="path2" d="M175.000 71.875 L 175.000 75.000 171.875 75.000 L 168.750 75.000 168.750 81.250 L 168.750 87.500 165.625 87.500 L 162.500 87.500 162.500 90.625 L 162.500 93.750 159.375 93.750 L 156.250 93.750 156.250 96.875 L 156.250 100.000 153.125 100.000 L 150.000 100.000 150.000 106.250 L 150.000 112.500 146.875 112.500 L 143.750 112.500 143.750 106.250 L 143.750 100.000 140.625 100.000 L 137.500 100.000 137.500 106.250 L 137.500 112.500 134.375 112.500 L 131.250 112.500 131.250 109.375 L 131.250 106.250 128.125 106.250 L 125.000 106.250 125.000 109.375 L 125.000 112.500 121.875 112.500 L 118.750 112.500 118.750 125.000 L 118.750 137.500 121.875 137.500 L 125.000 137.500 125.000 128.125 L 125.000 118.750 128.125 118.750 L 131.250 118.750 131.250 128.125 L 131.250 137.500 134.375 137.500 L 137.500 137.500 137.500 128.125 L 137.500 118.750 140.625 118.750 L 143.750 118.750 143.750 125.000 L 143.750 131.250 146.875 131.250 L 150.000 131.250 150.000 137.500 L 150.000 143.750 153.125 143.750 L 156.250 143.750 156.250 121.875 L 156.250 100.000 159.375 100.000 L 162.500 100.000 162.500 96.875 L 162.500 93.750 165.625 93.750 L 168.750 93.750 168.750 90.625 L 168.750 87.500 171.875 87.500 L 175.000 87.500 175.000 81.250 L 175.000 75.000 187.500 75.000 L 200.000 75.000 200.000 87.500 L 200.000 100.000 203.125 100.000 L 206.250 100.000 206.250 112.500 L 206.250 125.000 209.375 125.000 L 212.500 125.000 212.500 115.625 L 212.500 106.250 215.625 106.250 L 218.750 106.250 218.750 118.750 L 218.750 131.250 221.875 131.250 L 225.000 131.250 225.000 115.625 L 225.000 100.000 221.875 100.000 L 218.750 100.000 218.750 87.500 L 218.750 75.000 215.625 75.000 L 212.500 75.000 212.500 81.250 L 212.500 87.500 209.375 87.500 L 206.250 87.500 206.250 78.125 L 206.250 68.750 190.625 68.750 L 175.000 68.750 175.000 71.875 M225.000 90.625 L 225.000 93.750 228.125 93.750 L 231.250 93.750 231.250 96.875 L 231.250 100.000 234.375 100.000 L 237.500 100.000 237.500 103.125 L 237.500 106.250 240.625 106.250 L 243.750 106.250 243.750 103.125 L 243.750 100.000 240.625 100.000 L 237.500 100.000 237.500 96.875 L 237.500 93.750 234.375 93.750 L 231.250 93.750 231.250 90.625 L 231.250 87.500 228.125 87.500 L 225.000 87.500 225.000 90.625 M250.000 121.875 L 250.000 125.000 246.875 125.000 L 243.750 125.000 243.750 134.375 L 243.750 143.750 246.875 143.750 L 250.000 143.750 250.000 137.500 L 250.000 131.250 253.125 131.250 L 256.250 131.250 256.250 125.000 L 256.250 118.750 253.125 118.750 L 250.000 118.750 250.000 121.875 M106.250 134.375 L 106.250 137.500 109.375 137.500 L 112.500 137.500 112.500 134.375 L 112.500 131.250 109.375 131.250 L 106.250 131.250 106.250 134.375 M262.500 143.750 L 262.500 150.000 259.375 150.000 L 256.250 150.000 256.250 162.500 L 256.250 175.000 259.375 175.000 L 262.500 175.000 262.500 162.500 L 262.500 150.000 265.625 150.000 L 268.750 150.000 268.750 171.875 L 268.750 193.750 271.875 193.750 L 275.000 193.750 275.000 181.250 L 275.000 168.750 278.125 168.750 L 281.250 168.750 281.250 165.625 L 281.250 162.500 278.125 162.500 L 275.000 162.500 275.000 156.250 L 275.000 150.000 271.875 150.000 L 268.750 150.000 268.750 143.750 L 268.750 137.500 265.625 137.500 L 262.500 137.500 262.500 143.750 M112.500 150.000 L 112.500 156.250 115.625 156.250 L 118.750 156.250 118.750 150.000 L 118.750 143.750 115.625 143.750 L 112.500 143.750 112.500 150.000 M81.250 225.000 L 81.250 243.750 84.375 243.750 L 87.500 243.750 87.500 225.000 L 87.500 206.250 84.375 206.250 L 81.250 206.250 81.250 225.000 M275.000 234.375 L 275.000 237.500 271.875 237.500 L 268.750 237.500 268.750 240.625 L 268.750 243.750 271.875 243.750 L 275.000 243.750 275.000 246.875 L 275.000 250.000 278.125 250.000 L 281.250 250.000 281.250 240.625 L 281.250 231.250 278.125 231.250 L 275.000 231.250 275.000 234.375 M93.750 262.500 L 93.750 268.750 90.625 268.750 L 87.500 268.750 87.500 281.250 L 87.500 293.750 90.625 293.750 L 93.750 293.750 93.750 284.375 L 93.750 275.000 96.875 275.000 L 100.000 275.000 100.000 265.625 L 100.000 256.250 96.875 256.250 L 93.750 256.250 93.750 262.500 M106.250 268.750 L 106.250 281.250 109.375 281.250 L 112.500 281.250 112.500 284.375 L 112.500 287.500 115.625 287.500 L 118.750 287.500 118.750 290.625 L 118.750 293.750 121.875 293.750 L 125.000 293.750 125.000 300.000 L 125.000 306.250 128.125 306.250 L 131.250 306.250 131.250 296.875 L 131.250 287.500 128.125 287.500 L 125.000 287.500 125.000 281.250 L 125.000 275.000 121.875 275.000 L 118.750 275.000 118.750 268.750 L 118.750 262.500 115.625 262.500 L 112.500 262.500 112.500 259.375 L 112.500 256.250 109.375 256.250 L 106.250 256.250 106.250 268.750 M131.250 278.125 L 131.250 281.250 134.375 281.250 L 137.500 281.250 137.500 278.125 L 137.500 275.000 134.375 275.000 L 131.250 275.000 131.250 278.125 M287.500 284.375 L 287.500 293.750 284.375 293.750 L 281.250 293.750 281.250 303.125 L 281.250 312.500 278.125 312.500 L 275.000 312.500 275.000 318.750 L 275.000 325.000 271.875 325.000 L 268.750 325.000 268.750 337.500 L 268.750 350.000 271.875 350.000 L 275.000 350.000 275.000 340.625 L 275.000 331.250 278.125 331.250 L 281.250 331.250 281.250 325.000 L 281.250 318.750 284.375 318.750 L 287.500 318.750 287.500 312.500 L 287.500 306.250 290.625 306.250 L 293.750 306.250 293.750 290.625 L 293.750 275.000 290.625 275.000 L 287.500 275.000 287.500 284.375 M143.750 284.375 L 143.750 287.500 140.625 287.500 L 137.500 287.500 137.500 290.625 L 137.500 293.750 140.625 293.750 L 143.750 293.750 143.750 309.375 L 143.750 325.000 146.875 325.000 L 150.000 325.000 150.000 315.625 L 150.000 306.250 153.125 306.250 L 156.250 306.250 156.250 309.375 L 156.250 312.500 159.375 312.500 L 162.500 312.500 162.500 318.750 L 162.500 325.000 165.625 325.000 L 168.750 325.000 168.750 340.625 L 168.750 356.250 171.875 356.250 L 175.000 356.250 175.000 346.875 L 175.000 337.500 178.125 337.500 L 181.250 337.500 181.250 321.875 L 181.250 306.250 184.375 306.250 L 187.500 306.250 187.500 309.375 L 187.500 312.500 190.625 312.500 L 193.750 312.500 193.750 321.875 L 193.750 331.250 196.875 331.250 L 200.000 331.250 200.000 321.875 L 200.000 312.500 196.875 312.500 L 193.750 312.500 193.750 309.375 L 193.750 306.250 190.625 306.250 L 187.500 306.250 187.500 300.000 L 187.500 293.750 184.375 293.750 L 181.250 293.750 181.250 300.000 L 181.250 306.250 178.125 306.250 L 175.000 306.250 175.000 315.625 L 175.000 325.000 171.875 325.000 L 168.750 325.000 168.750 318.750 L 168.750 312.500 165.625 312.500 L 162.500 312.500 162.500 309.375 L 162.500 306.250 159.375 306.250 L 156.250 306.250 156.250 303.125 L 156.250 300.000 153.125 300.000 L 150.000 300.000 150.000 290.625 L 150.000 281.250 146.875 281.250 L 143.750 281.250 143.750 284.375 M200.000 296.875 L 200.000 300.000 203.125 300.000 L 206.250 300.000 206.250 296.875 L 206.250 293.750 203.125 293.750 L 200.000 293.750 200.000 296.875 M206.250 321.875 L 206.250 325.000 209.375 325.000 L 212.500 325.000 212.500 321.875 L 212.500 318.750 209.375 318.750 L 206.250 318.750 206.250 321.875 M250.000 328.125 L 250.000 331.250 246.875 331.250 L 243.750 331.250 243.750 334.375 L 243.750 337.500 246.875 337.500 L 250.000 337.500 250.000 353.125 L 250.000 368.750 253.125 368.750 L 256.250 368.750 256.250 353.125 L 256.250 337.500 259.375 337.500 L 262.500 337.500 262.500 334.375 L 262.500 331.250 259.375 331.250 L 256.250 331.250 256.250 328.125 L 256.250 325.000 253.125 325.000 L 250.000 325.000 250.000 328.125 M212.500 334.375 L 212.500 337.500 215.625 337.500 L 218.750 337.500 218.750 340.625 L 218.750 343.750 221.875 343.750 L 225.000 343.750 225.000 346.875 L 225.000 350.000 228.125 350.000 L 231.250 350.000 231.250 346.875 L 231.250 343.750 228.125 343.750 L 225.000 343.750 225.000 340.625 L 225.000 337.500 221.875 337.500 L 218.750 337.500 218.750 334.375 L 218.750 331.250 215.625 331.250 L 212.500 331.250 212.500 334.375 M200.000 343.750 L 200.000 350.000 203.125 350.000 L 206.250 350.000 206.250 353.125 L 206.250 356.250 209.375 356.250 L 212.500 356.250 212.500 353.125 L 212.500 350.000 209.375 350.000 L 206.250 350.000 206.250 343.750 L 206.250 337.500 203.125 337.500 L 200.000 337.500 200.000 343.750 M237.500 350.000 L 237.500 356.250 234.375 356.250 L 231.250 356.250 231.250 359.375 L 231.250 362.500 228.125 362.500 L 225.000 362.500 225.000 365.625 L 225.000 368.750 221.875 368.750 L 218.750 368.750 218.750 365.625 L 218.750 362.500 215.625 362.500 L 212.500 362.500 212.500 368.750 L 212.500 375.000 215.625 375.000 L 218.750 375.000 218.750 381.250 L 218.750 387.500 221.875 387.500 L 225.000 387.500 225.000 381.250 L 225.000 375.000 228.125 375.000 L 231.250 375.000 231.250 378.125 L 231.250 381.250 234.375 381.250 L 237.500 381.250 237.500 375.000 L 237.500 368.750 240.625 368.750 L 243.750 368.750 243.750 356.250 L 243.750 343.750 240.625 343.750 L 237.500 343.750 237.500 350.000 " stroke="none" fill="#241c74" fill-rule="evenodd"></path><path id="path3" d="" stroke="none" fill="#c8d4b4" fill-rule="evenodd"></path><path id="path4" d="" stroke="none" fill="#c8d4b4" fill-rule="evenodd"></path></g></svg>