<svg id="svg" version="1.1" xmlns="http://www.w3.org/2000/svg" xmlns:xlink="http://www.w3.org/1999/xlink" width="400" height="400" viewBox="0, 0, 400,400"><g id="svgg"><path id="path0" d="M106.250 50.000 L 106.250 56.250 109.375 56.250 L 112.500 56.250 112.500 78.125 L 112.500 100.000 109.375 100.000 L 106.250 100.000 106.250 146.875 L 106.250 193.750 103.125 193.750 L 100.000 193.750 100.000 196.875 L 100.000 200.000 103.125 200.000 L 106.250 200.000 106.250 212.500 L 106.250 225.000 109.375 225.000 L 112.500 225.000 112.500 231.250 L 112.500 237.500 115.625 237.500 L 118.750 237.500 118.750 281.250 L 118.750 325.000 121.875 325.000 L 125.000 325.000 125.000 278.125 L 125.000 231.250 121.875 231.250 L 118.750 231.250 118.750 203.125 L 118.750 175.000 121.875 175.000 L 125.000 175.000 125.000 159.375 L 125.000 143.750 128.125 143.750 L 131.250 143.750 131.250 137.500 L 131.250 131.250 128.125 131.250 L 125.000 131.250 125.000 118.750 L 125.000 106.250 128.125 106.250 L 131.250 106.250 131.250 103.125 L 131.250 100.000 128.125 100.000 L 125.000 100.000 125.000 87.500 L 125.000 75.000 128.125 75.000 L 131.250 75.000 131.250 68.750 L 131.250 62.500 134.375 62.500 L 137.500 62.500 137.500 65.625 L 137.500 68.750 140.625 68.750 L 143.750 68.750 143.750 75.000 L 143.750 81.250 146.875 81.250 L 150.000 81.250 150.000 93.750 L 150.000 106.250 153.125 106.250 L 156.250 106.250 156.250 112.500 L 156.250 118.750 159.375 118.750 L 162.500 118.750 162.500 125.000 L 162.500 131.250 165.625 131.250 L 168.750 131.250 168.750 137.500 L 168.750 143.750 171.875 143.750 L 175.000 143.750 175.000 146.875 L 175.000 150.000 178.125 150.000 L 181.250 150.000 181.250 159.375 L 181.250 168.750 184.375 168.750 L 187.500 168.750 187.500 171.875 L 187.500 175.000 190.625 175.000 L 193.750 175.000 193.750 178.125 L 193.750 181.250 196.875 181.250 L 200.000 181.250 200.000 190.625 L 200.000 200.000 203.125 200.000 L 206.250 200.000 206.250 206.250 L 206.250 212.500 209.375 212.500 L 212.500 212.500 212.500 215.625 L 212.500 218.750 218.750 218.750 L 225.000 218.750 225.000 234.375 L 225.000 250.000 228.125 250.000 L 231.250 250.000 231.250 253.125 L 231.250 256.250 234.375 256.250 L 237.500 256.250 237.500 262.500 L 237.500 268.750 240.625 268.750 L 243.750 268.750 243.750 278.125 L 243.750 287.500 246.875 287.500 L 250.000 287.500 250.000 296.875 L 250.000 306.250 253.125 306.250 L 256.250 306.250 256.250 221.875 L 256.250 137.500 259.375 137.500 L 262.500 137.500 262.500 131.250 L 262.500 125.000 259.375 125.000 L 256.250 125.000 256.250 128.125 L 256.250 131.250 253.125 131.250 L 250.000 131.250 250.000 90.625 L 250.000 50.000 243.750 50.000 L 237.500 50.000 237.500 62.500 L 237.500 75.000 240.625 75.000 L 243.750 75.000 243.750 118.750 L 243.750 162.500 246.875 162.500 L 250.000 162.500 250.000 187.500 L 250.000 212.500 246.875 212.500 L 243.750 212.500 243.750 215.625 L 243.750 218.750 240.625 218.750 L 237.500 218.750 237.500 228.125 L 237.500 237.500 234.375 237.500 L 231.250 237.500 231.250 225.000 L 231.250 212.500 228.125 212.500 L 225.000 212.500 225.000 209.375 L 225.000 206.250 221.875 206.250 L 218.750 206.250 218.750 200.000 L 218.750 193.750 215.625 193.750 L 212.500 193.750 212.500 190.625 L 212.500 187.500 209.375 187.500 L 206.250 187.500 206.250 178.125 L 206.250 168.750 203.125 168.750 L 200.000 168.750 200.000 165.625 L 200.000 162.500 196.875 162.500 L 193.750 162.500 193.750 156.250 L 193.750 150.000 190.625 150.000 L 187.500 150.000 187.500 146.875 L 187.500 143.750 184.375 143.750 L 181.250 143.750 181.250 128.125 L 181.250 112.500 178.125 112.500 L 175.000 112.500 175.000 115.625 L 175.000 118.750 171.875 118.750 L 168.750 118.750 168.750 112.500 L 168.750 106.250 165.625 106.250 L 162.500 106.250 162.500 103.125 L 162.500 100.000 159.375 100.000 L 156.250 100.000 156.250 84.375 L 156.250 68.750 153.125 68.750 L 150.000 68.750 150.000 65.625 L 150.000 62.500 146.875 62.500 L 143.750 62.500 143.750 59.375 L 143.750 56.250 137.500 56.250 L 131.250 56.250 131.250 53.125 L 131.250 50.000 128.125 50.000 L 125.000 50.000 125.000 56.250 L 125.000 62.500 121.875 62.500 L 118.750 62.500 118.750 56.250 L 118.750 50.000 115.625 50.000 L 112.500 50.000 112.500 46.875 L 112.500 43.750 109.375 43.750 L 106.250 43.750 106.250 50.000 M118.750 137.500 L 118.750 143.750 115.625 143.750 L 112.500 143.750 112.500 137.500 L 112.500 131.250 115.625 131.250 L 118.750 131.250 118.750 137.500 M118.750 153.125 L 118.750 156.250 115.625 156.250 L 112.500 156.250 112.500 153.125 L 112.500 150.000 115.625 150.000 L 118.750 150.000 118.750 153.125 M118.750 171.875 L 118.750 175.000 115.625 175.000 L 112.500 175.000 112.500 171.875 L 112.500 168.750 115.625 168.750 L 118.750 168.750 118.750 171.875 M212.500 196.875 L 212.500 200.000 209.375 200.000 L 206.250 200.000 206.250 196.875 L 206.250 193.750 209.375 193.750 L 212.500 193.750 212.500 196.875 M250.000 234.375 L 250.000 250.000 246.875 250.000 L 243.750 250.000 243.750 234.375 L 243.750 218.750 246.875 218.750 L 250.000 218.750 250.000 234.375 " stroke="none" fill="#c4fcf4" fill-rule="evenodd"></path><path id="path1" d="M268.750 34.375 L 268.750 37.500 262.500 37.500 L 256.250 37.500 256.250 43.750 L 256.250 50.000 253.125 50.000 L 250.000 50.000 250.000 53.125 L 250.000 56.250 256.250 56.250 L 262.500 56.250 262.500 50.000 L 262.500 43.750 265.625 43.750 L 268.750 43.750 268.750 40.625 L 268.750 37.500 271.875 37.500 L 275.000 37.500 275.000 34.375 L 275.000 31.250 271.875 31.250 L 268.750 31.250 268.750 34.375 M131.250 68.750 L 131.250 75.000 128.125 75.000 L 125.000 75.000 125.000 87.500 L 125.000 100.000 128.125 100.000 L 131.250 100.000 131.250 87.500 L 131.250 75.000 134.375 75.000 L 137.500 75.000 137.500 100.000 L 137.500 125.000 140.625 125.000 L 143.750 125.000 143.750 150.000 L 143.750 175.000 146.875 175.000 L 150.000 175.000 150.000 165.625 L 150.000 156.250 153.125 156.250 L 156.250 156.250 156.250 181.250 L 156.250 206.250 159.375 206.250 L 162.500 206.250 162.500 196.875 L 162.500 187.500 165.625 187.500 L 168.750 187.500 168.750 171.875 L 168.750 156.250 171.875 156.250 L 175.000 156.250 175.000 168.750 L 175.000 181.250 178.125 181.250 L 181.250 181.250 181.250 193.750 L 181.250 206.250 184.375 206.250 L 187.500 206.250 187.500 196.875 L 187.500 187.500 190.625 187.500 L 193.750 187.500 193.750 212.500 L 193.750 237.500 196.875 237.500 L 200.000 237.500 200.000 253.125 L 200.000 268.750 203.125 268.750 L 206.250 268.750 206.250 253.125 L 206.250 237.500 209.375 237.500 L 212.500 237.500 212.500 234.375 L 212.500 231.250 215.625 231.250 L 218.750 231.250 218.750 250.000 L 218.750 268.750 221.875 268.750 L 225.000 268.750 225.000 284.375 L 225.000 300.000 228.125 300.000 L 231.250 300.000 231.250 293.750 L 231.250 287.500 234.375 287.500 L 237.500 287.500 237.500 303.125 L 237.500 318.750 240.625 318.750 L 243.750 318.750 243.750 312.500 L 243.750 306.250 246.875 306.250 L 250.000 306.250 250.000 309.375 L 250.000 312.500 253.125 312.500 L 256.250 312.500 256.250 321.875 L 256.250 331.250 259.375 331.250 L 262.500 331.250 262.500 321.875 L 262.500 312.500 259.375 312.500 L 256.250 312.500 256.250 309.375 L 256.250 306.250 253.125 306.250 L 250.000 306.250 250.000 296.875 L 250.000 287.500 246.875 287.500 L 243.750 287.500 243.750 278.125 L 243.750 268.750 240.625 268.750 L 237.500 268.750 237.500 262.500 L 237.500 256.250 234.375 256.250 L 231.250 256.250 231.250 253.125 L 231.250 250.000 228.125 250.000 L 225.000 250.000 225.000 234.375 L 225.000 218.750 221.875 218.750 L 218.750 218.750 218.750 221.875 L 218.750 225.000 212.500 225.000 L 206.250 225.000 206.250 212.500 L 206.250 200.000 203.125 200.000 L 200.000 200.000 200.000 190.625 L 200.000 181.250 196.875 181.250 L 193.750 181.250 193.750 178.125 L 193.750 175.000 190.625 175.000 L 187.500 175.000 187.500 171.875 L 187.500 168.750 184.375 168.750 L 181.250 168.750 181.250 159.375 L 181.250 150.000 178.125 150.000 L 175.000 150.000 175.000 146.875 L 175.000 143.750 171.875 143.750 L 168.750 143.750 168.750 137.500 L 168.750 131.250 165.625 131.250 L 162.500 131.250 162.500 125.000 L 162.500 118.750 159.375 118.750 L 156.250 118.750 156.250 112.500 L 156.250 106.250 153.125 106.250 L 150.000 106.250 150.000 93.750 L 150.000 81.250 146.875 81.250 L 143.750 81.250 143.750 75.000 L 143.750 68.750 140.625 68.750 L 137.500 68.750 137.500 65.625 L 137.500 62.500 134.375 62.500 L 131.250 62.500 131.250 68.750 M237.500 121.875 L 237.500 168.750 240.625 168.750 L 243.750 168.750 243.750 190.625 L 243.750 212.500 246.875 212.500 L 250.000 212.500 250.000 187.500 L 250.000 162.500 246.875 162.500 L 243.750 162.500 243.750 118.750 L 243.750 75.000 240.625 75.000 L 237.500 75.000 237.500 121.875 M125.000 125.000 L 125.000 131.250 128.125 131.250 L 131.250 131.250 131.250 125.000 L 131.250 118.750 128.125 118.750 L 125.000 118.750 125.000 125.000 M118.750 187.500 L 118.750 200.000 121.875 200.000 L 125.000 200.000 125.000 187.500 L 125.000 175.000 121.875 175.000 L 118.750 175.000 118.750 187.500 M100.000 243.750 L 100.000 287.500 103.125 287.500 L 106.250 287.500 106.250 275.000 L 106.250 262.500 109.375 262.500 L 112.500 262.500 112.500 300.000 L 112.500 337.500 109.375 337.500 L 106.250 337.500 106.250 340.625 L 106.250 343.750 100.000 343.750 L 93.750 343.750 93.750 350.000 L 93.750 356.250 90.625 356.250 L 87.500 356.250 87.500 359.375 L 87.500 362.500 90.625 362.500 L 93.750 362.500 93.750 359.375 L 93.750 356.250 96.875 356.250 L 100.000 356.250 100.000 353.125 L 100.000 350.000 109.375 350.000 L 118.750 350.000 118.750 340.625 L 118.750 331.250 121.875 331.250 L 125.000 331.250 125.000 328.125 L 125.000 325.000 121.875 325.000 L 118.750 325.000 118.750 281.250 L 118.750 237.500 115.625 237.500 L 112.500 237.500 112.500 231.250 L 112.500 225.000 109.375 225.000 L 106.250 225.000 106.250 212.500 L 106.250 200.000 103.125 200.000 L 100.000 200.000 100.000 243.750 " stroke="none" fill="#363b8f" fill-rule="evenodd"></path><path id="path2" d="" stroke="none" fill="#c8c4b4" fill-rule="evenodd"></path><path id="path3" d="" stroke="none" fill="#c8c4b4" fill-rule="evenodd"></path><path id="path4" d="" stroke="none" fill="#c8c4b4" fill-rule="evenodd"></path></g></svg>